<?xml version="1.0" encoding="iso-8859-1"?>
<!-- Uploaded to: SVG Repo, www.svgrepo.com, Generator: SVG Repo Mixer Tools -->
<svg version="1.1" id="Layer_1" xmlns="http://www.w3.org/2000/svg" xmlns:xlink="http://www.w3.org/1999/xlink" 
	 viewBox="0 0 512 512" xml:space="preserve">
<circle style="fill:#2D4452;" cx="256" cy="256" r="256"/>
<path style="fill:#CCCCCC;" d="M440,312c0,8.8-7.2,16-16,16H88c-8.8,0-16-7.2-16-16v-96c0-8.8,7.2-16,16-16h336c8.8,0,16,7.2,16,16
	V312z"/>
<path style="fill:#BFBFBF;" d="M424,200h-8c8.8,0,16,7.2,16,16v96c0,8.8-7.2,16-16,16h8c8.8,0,16-7.2,16-16v-96
	C440,207.2,432.8,200,424,200z"/>
<g>
	<path style="fill:#F5F5F5;" d="M168,312c0,2.2-1.8,4-4,4h-8c-2.2,0-4-1.8-4-4v-8c0-2.2,1.8-4,4-4h8c2.2,0,4,1.8,4,4V312z"/>
	<path style="fill:#F5F5F5;" d="M340,312c0,2.2-1.8,4-4,4h-8c-2.2,0-4-1.8-4-4v-8c0-2.2,1.8-4,4-4h8c2.2,0,4,1.8,4,4V312z"/>
	<path style="fill:#F5F5F5;" d="M360,312c0,2.2-1.8,4-4,4h-8c-2.2,0-4-1.8-4-4v-8c0-2.2,1.8-4,4-4h8c2.2,0,4,1.8,4,4V312z"/>
	<path style="fill:#F5F5F5;" d="M404,312c0,2.2-1.8,4-4,4h-8c-2.2,0-4-1.8-4-4v-8c0-2.2,1.8-4,4-4h8c2.2,0,4,1.8,4,4V312z"/>
	<path style="fill:#F5F5F5;" d="M148,312c0,2.2-1.8,4-4,4h-8c-2.2,0-4-1.8-4-4v-8c0-2.2,1.8-4,4-4h8c2.2,0,4,1.8,4,4V312z"/>
	<path style="fill:#F5F5F5;" d="M128,312c0,2.2-1.8,4-4,4h-8c-2.2,0-4-1.8-4-4v-8c0-2.2,1.8-4,4-4h8c2.2,0,4,1.8,4,4V312z"/>
	<path style="fill:#F5F5F5;" d="M108,312c0,2.2-1.8,4-4,4h-8c-2.2,0-4-1.8-4-4v-8c0-2.2,1.8-4,4-4h8c2.2,0,4,1.8,4,4V312z"/>
	<path style="fill:#F5F5F5;" d="M148,288c0,2.2-1.8,4-4,4h-8c-2.2,0-4-1.8-4-4v-8c0-2.2,1.8-4,4-4h8c2.2,0,4,1.8,4,4V288z"/>
	<path style="fill:#F5F5F5;" d="M128,288c0,2.2-1.8,4-4,4h-8c-2.2,0-4-1.8-4-4v-8c0-2.2,1.8-4,4-4h8c2.2,0,4,1.8,4,4V288z"/>
	<path style="fill:#F5F5F5;" d="M108,288c0,2.2-1.8,4-4,4h-8c-2.2,0-4-1.8-4-4v-8c0-2.2,1.8-4,4-4h8c2.2,0,4,1.8,4,4V288z"/>
	<path style="fill:#F5F5F5;" d="M208,288c0,2.2-1.8,4-4,4h-8c-2.2,0-4-1.8-4-4v-8c0-2.2,1.8-4,4-4h8c2.2,0,4,1.8,4,4V288z"/>
	<path style="fill:#F5F5F5;" d="M188,288c0,2.2-1.8,4-4,4h-8c-2.2,0-4-1.8-4-4v-8c0-2.2,1.8-4,4-4h8c2.2,0,4,1.8,4,4V288z"/>
	<path style="fill:#F5F5F5;" d="M168,288c0,2.2-1.8,4-4,4h-8c-2.2,0-4-1.8-4-4v-8c0-2.2,1.8-4,4-4h8c2.2,0,4,1.8,4,4V288z"/>
	<path style="fill:#F5F5F5;" d="M268,288c0,2.2-1.8,4-4,4h-8c-2.2,0-4-1.8-4-4v-8c0-2.2,1.8-4,4-4h8c2.2,0,4,1.8,4,4V288z"/>
	<path style="fill:#F5F5F5;" d="M248,288c0,2.2-1.8,4-4,4h-8c-2.2,0-4-1.8-4-4v-8c0-2.2,1.8-4,4-4h8c2.2,0,4,1.8,4,4V288z"/>
	<path style="fill:#F5F5F5;" d="M228,288c0,2.2-1.8,4-4,4h-8c-2.2,0-4-1.8-4-4v-8c0-2.2,1.8-4,4-4h8c2.2,0,4,1.8,4,4V288z"/>
	<path style="fill:#F5F5F5;" d="M308,288c0,2.2-1.8,4-4,4h-8c-2.2,0-4-1.8-4-4v-8c0-2.2,1.8-4,4-4h8c2.2,0,4,1.8,4,4V288z"/>
	<path style="fill:#F5F5F5;" d="M328,288c0,2.2-1.8,4-4,4h-8c-2.2,0-4-1.8-4-4v-8c0-2.2,1.8-4,4-4h8c2.2,0,4,1.8,4,4V288z"/>
	<path style="fill:#F5F5F5;" d="M348,288c0,2.2-1.8,4-4,4h-8c-2.2,0-4-1.8-4-4v-8c0-2.2,1.8-4,4-4h8c2.2,0,4,1.8,4,4V288z"/>
	<path style="fill:#F5F5F5;" d="M368,288c0,2.2-1.8,4-4,4h-8c-2.2,0-4-1.8-4-4v-8c0-2.2,1.8-4,4-4h8c2.2,0,4,1.8,4,4V288z"/>
	<path style="fill:#F5F5F5;" d="M288,288c0,2.2-1.8,4-4,4h-8c-2.2,0-4-1.8-4-4v-8c0-2.2,1.8-4,4-4h8c2.2,0,4,1.8,4,4V288z"/>
	<path style="fill:#F5F5F5;" d="M148,268c0,2.2-1.8,4-4,4h-8c-2.2,0-4-1.8-4-4v-8c0-2.2,1.8-4,4-4h8c2.2,0,4,1.8,4,4V268z"/>
	<path style="fill:#F5F5F5;" d="M128,268c0,2.2-1.8,4-4,4h-8c-2.2,0-4-1.8-4-4v-8c0-2.2,1.8-4,4-4h8c2.2,0,4,1.8,4,4V268z"/>
	<path style="fill:#F5F5F5;" d="M108,268c0,2.2-1.8,4-4,4h-8c-2.2,0-4-1.8-4-4v-8c0-2.2,1.8-4,4-4h8c2.2,0,4,1.8,4,4V268z"/>
	<path style="fill:#F5F5F5;" d="M208,268c0,2.2-1.8,4-4,4h-8c-2.2,0-4-1.8-4-4v-8c0-2.2,1.8-4,4-4h8c2.2,0,4,1.8,4,4V268z"/>
	<path style="fill:#F5F5F5;" d="M188,268c0,2.2-1.8,4-4,4h-8c-2.2,0-4-1.8-4-4v-8c0-2.2,1.8-4,4-4h8c2.2,0,4,1.8,4,4V268z"/>
	<path style="fill:#F5F5F5;" d="M168,268c0,2.2-1.8,4-4,4h-8c-2.2,0-4-1.8-4-4v-8c0-2.2,1.8-4,4-4h8c2.2,0,4,1.8,4,4V268z"/>
	<path style="fill:#F5F5F5;" d="M268,268c0,2.2-1.8,4-4,4h-8c-2.2,0-4-1.8-4-4v-8c0-2.2,1.8-4,4-4h8c2.2,0,4,1.8,4,4V268z"/>
	<path style="fill:#F5F5F5;" d="M248,268c0,2.2-1.8,4-4,4h-8c-2.2,0-4-1.8-4-4v-8c0-2.2,1.8-4,4-4h8c2.2,0,4,1.8,4,4V268z"/>
	<path style="fill:#F5F5F5;" d="M228,268c0,2.2-1.8,4-4,4h-8c-2.2,0-4-1.8-4-4v-8c0-2.2,1.8-4,4-4h8c2.2,0,4,1.8,4,4V268z"/>
	<path style="fill:#F5F5F5;" d="M308,268c0,2.2-1.8,4-4,4h-8c-2.2,0-4-1.8-4-4v-8c0-2.2,1.8-4,4-4h8c2.2,0,4,1.8,4,4V268z"/>
	<path style="fill:#F5F5F5;" d="M328,268c0,2.2-1.8,4-4,4h-8c-2.2,0-4-1.8-4-4v-8c0-2.2,1.8-4,4-4h8c2.2,0,4,1.8,4,4V268z"/>
	<path style="fill:#F5F5F5;" d="M348,268c0,2.2-1.8,4-4,4h-8c-2.2,0-4-1.8-4-4v-8c0-2.2,1.8-4,4-4h8c2.2,0,4,1.8,4,4V268z"/>
	<path style="fill:#F5F5F5;" d="M368,268c0,2.2-1.8,4-4,4h-8c-2.2,0-4-1.8-4-4v-8c0-2.2,1.8-4,4-4h8c2.2,0,4,1.8,4,4V268z"/>
	<path style="fill:#F5F5F5;" d="M288,268c0,2.2-1.8,4-4,4h-8c-2.2,0-4-1.8-4-4v-8c0-2.2,1.8-4,4-4h8c2.2,0,4,1.8,4,4V268z"/>
	<path style="fill:#F5F5F5;" d="M148,248c0,2.2-1.8,4-4,4h-8c-2.2,0-4-1.8-4-4v-8c0-2.2,1.8-4,4-4h8c2.2,0,4,1.8,4,4V248z"/>
	<path style="fill:#F5F5F5;" d="M128,248c0,2.2-1.8,4-4,4h-8c-2.2,0-4-1.8-4-4v-8c0-2.2,1.8-4,4-4h8c2.2,0,4,1.8,4,4V248z"/>
	<path style="fill:#F5F5F5;" d="M108,248c0,2.2-1.8,4-4,4h-8c-2.2,0-4-1.8-4-4v-8c0-2.2,1.8-4,4-4h8c2.2,0,4,1.8,4,4V248z"/>
	<path style="fill:#F5F5F5;" d="M108,220c0,2.2-1.8,4-4,4h-8c-2.2,0-4-1.8-4-4v-4c0-2.2,1.8-4,4-4h8c2.2,0,4,1.8,4,4V220z"/>
	<path style="fill:#F5F5F5;" d="M128,220c0,2.2-1.8,4-4,4h-8c-2.2,0-4-1.8-4-4v-4c0-2.2,1.8-4,4-4h8c2.2,0,4,1.8,4,4V220z"/>
	<path style="fill:#F5F5F5;" d="M148,220c0,2.2-1.8,4-4,4h-8c-2.2,0-4-1.8-4-4v-4c0-2.2,1.8-4,4-4h8c2.2,0,4,1.8,4,4V220z"/>
	<path style="fill:#F5F5F5;" d="M168,220c0,2.2-1.8,4-4,4h-8c-2.2,0-4-1.8-4-4v-4c0-2.2,1.8-4,4-4h8c2.2,0,4,1.8,4,4V220z"/>
	<path style="fill:#F5F5F5;" d="M188,220c0,2.2-1.8,4-4,4h-8c-2.2,0-4-1.8-4-4v-4c0-2.2,1.8-4,4-4h8c2.2,0,4,1.8,4,4V220z"/>
	<path style="fill:#F5F5F5;" d="M208,220c0,2.2-1.8,4-4,4h-8c-2.2,0-4-1.8-4-4v-4c0-2.2,1.8-4,4-4h8c2.2,0,4,1.8,4,4V220z"/>
	<path style="fill:#F5F5F5;" d="M228,220c0,2.2-1.8,4-4,4h-8c-2.2,0-4-1.8-4-4v-4c0-2.2,1.8-4,4-4h8c2.2,0,4,1.8,4,4V220z"/>
	<path style="fill:#F5F5F5;" d="M248,220c0,2.2-1.8,4-4,4h-8c-2.2,0-4-1.8-4-4v-4c0-2.2,1.8-4,4-4h8c2.2,0,4,1.8,4,4V220z"/>
	<path style="fill:#F5F5F5;" d="M268,220c0,2.2-1.8,4-4,4h-8c-2.2,0-4-1.8-4-4v-4c0-2.2,1.8-4,4-4h8c2.2,0,4,1.8,4,4V220z"/>
	<path style="fill:#F5F5F5;" d="M288,220c0,2.2-1.8,4-4,4h-8c-2.2,0-4-1.8-4-4v-4c0-2.2,1.8-4,4-4h8c2.2,0,4,1.8,4,4V220z"/>
	<path style="fill:#F5F5F5;" d="M308,220c0,2.2-1.8,4-4,4h-8c-2.2,0-4-1.8-4-4v-4c0-2.2,1.8-4,4-4h8c2.2,0,4,1.8,4,4V220z"/>
	<path style="fill:#F5F5F5;" d="M328,220c0,2.2-1.8,4-4,4h-8c-2.2,0-4-1.8-4-4v-4c0-2.2,1.8-4,4-4h8c2.2,0,4,1.8,4,4V220z"/>
	<path style="fill:#F5F5F5;" d="M348,220c0,2.2-1.8,4-4,4h-8c-2.2,0-4-1.8-4-4v-4c0-2.2,1.8-4,4-4h8c2.2,0,4,1.8,4,4V220z"/>
	<path style="fill:#F5F5F5;" d="M368,220c0,2.2-1.8,4-4,4h-8c-2.2,0-4-1.8-4-4v-4c0-2.2,1.8-4,4-4h8c2.2,0,4,1.8,4,4V220z"/>
	<path style="fill:#F5F5F5;" d="M388,220c0,2.2-1.8,4-4,4h-8c-2.2,0-4-1.8-4-4v-4c0-2.2,1.8-4,4-4h8c2.2,0,4,1.8,4,4V220z"/>
	<path style="fill:#F5F5F5;" d="M408,220c0,2.2-1.8,4-4,4h-8c-2.2,0-4-1.8-4-4v-4c0-2.2,1.8-4,4-4h8c2.2,0,4,1.8,4,4V220z"/>
	<path style="fill:#F5F5F5;" d="M428,220c0,2.2-1.8,4-4,4h-8c-2.2,0-4-1.8-4-4v-4c0-2.2,1.8-4,4-4h8c2.2,0,4,1.8,4,4V220z"/>
	<path style="fill:#F5F5F5;" d="M208,248c0,2.2-1.8,4-4,4h-8c-2.2,0-4-1.8-4-4v-8c0-2.2,1.8-4,4-4h8c2.2,0,4,1.8,4,4V248z"/>
	<path style="fill:#F5F5F5;" d="M188,248c0,2.2-1.8,4-4,4h-8c-2.2,0-4-1.8-4-4v-8c0-2.2,1.8-4,4-4h8c2.2,0,4,1.8,4,4V248z"/>
	<path style="fill:#F5F5F5;" d="M168,248c0,2.2-1.8,4-4,4h-8c-2.2,0-4-1.8-4-4v-8c0-2.2,1.8-4,4-4h8c2.2,0,4,1.8,4,4V248z"/>
	<path style="fill:#F5F5F5;" d="M268,248c0,2.2-1.8,4-4,4h-8c-2.2,0-4-1.8-4-4v-8c0-2.2,1.8-4,4-4h8c2.2,0,4,1.8,4,4V248z"/>
	<path style="fill:#F5F5F5;" d="M248,248c0,2.2-1.8,4-4,4h-8c-2.2,0-4-1.8-4-4v-8c0-2.2,1.8-4,4-4h8c2.2,0,4,1.8,4,4V248z"/>
	<path style="fill:#F5F5F5;" d="M228,248c0,2.2-1.8,4-4,4h-8c-2.2,0-4-1.8-4-4v-8c0-2.2,1.8-4,4-4h8c2.2,0,4,1.8,4,4V248z"/>
	<path style="fill:#F5F5F5;" d="M308,248c0,2.2-1.8,4-4,4h-8c-2.2,0-4-1.8-4-4v-8c0-2.2,1.8-4,4-4h8c2.2,0,4,1.8,4,4V248z"/>
	<path style="fill:#F5F5F5;" d="M328,248c0,2.2-1.8,4-4,4h-8c-2.2,0-4-1.8-4-4v-8c0-2.2,1.8-4,4-4h8c2.2,0,4,1.8,4,4V248z"/>
	<path style="fill:#F5F5F5;" d="M348,248c0,2.2-1.8,4-4,4h-8c-2.2,0-4-1.8-4-4v-8c0-2.2,1.8-4,4-4h8c2.2,0,4,1.8,4,4V248z"/>
	<path style="fill:#F5F5F5;" d="M368,248c0,2.2-1.8,4-4,4h-8c-2.2,0-4-1.8-4-4v-8c0-2.2,1.8-4,4-4h8c2.2,0,4,1.8,4,4V248z"/>
	<path style="fill:#F5F5F5;" d="M388,248c0,2.2-1.8,4-4,4h-8c-2.2,0-4-1.8-4-4v-8c0-2.2,1.8-4,4-4h8c2.2,0,4,1.8,4,4V248z"/>
	<path style="fill:#F5F5F5;" d="M428,288c0,2.2-1.8,4-4,4h-48c-2.2,0-4-1.8-4-4v-8c0-2.2,1.8-4,4-4h48c2.2,0,4,1.8,4,4V288z"/>
	<path style="fill:#F5F5F5;" d="M428,268c0,2.2-1.8,4-4,4h-40c-2.2,0-4-1.8-4-4v-8c0-2.2,1.8-4,4-4h40c2.2,0,4,1.8,4,4V268z"/>
	<path style="fill:#F5F5F5;" d="M428,248c0,2.2-1.8,4-4,4h-28c-2.2,0-4-1.8-4-4v-8c0-2.2,1.8-4,4-4h28c2.2,0,4,1.8,4,4V248z"/>
	<path style="fill:#F5F5F5;" d="M288,248c0,2.2-1.8,4-4,4h-8c-2.2,0-4-1.8-4-4v-8c0-2.2,1.8-4,4-4h8c2.2,0,4,1.8,4,4V248z"/>
	<path style="fill:#F5F5F5;" d="M384,312c0,2.2-1.8,4-4,4h-8c-2.2,0-4-1.8-4-4v-4c0-2.2,1.8-4,4-4h8c2.2,0,4,1.8,4,4V312z"/>
	<path style="fill:#F5F5F5;" d="M424,312c0,2.2-1.8,4-4,4h-8c-2.2,0-4-1.8-4-4v-4c0-2.2,1.8-4,4-4h8c2.2,0,4,1.8,4,4V312z"/>
	<path style="fill:#F5F5F5;" d="M316,312c0,2.2-1.8,4-4,4H176c-2.2,0-4-1.8-4-4v-8c0-2.2,1.8-4,4-4h136c2.2,0,4,1.8,4,4V312z"/>
	<path style="fill:#F5F5F5;" d="M176,36c-11.028,0-20,8.972-20,20s8.972,20,20,20h160c6.616,0,12,5.384,12,12s-5.384,12-12,12H176
		c-11.028,0-20,8.972-20,20s8.972,20,20,20h160c6.616,0,12,5.384,12,12s-5.384,12-12,12h-68c-2.212,0-4,1.792-4,4v32h8v-28h64
		c11.028,0,20-8.972,20-20s-8.972-20-20-20H176c-6.616,0-12-5.384-12-12s5.384-12,12-12h160c11.028,0,20-8.972,20-20
		s-8.972-20-20-20H176c-6.616,0-12-5.384-12-12s5.384-12,12-12h84c2.212,0,4-1.792,4-4V0.204C261.336,0.12,258.684,0,256,0v36H176z"
		/>
	<path style="fill:#F5F5F5;" d="M276,188h-16c-2.2,0-4,1.8-4,4v8h24v-8C280,189.8,278.2,188,276,188z"/>
</g>
<rect x="264" y="184" style="fill:#E6E6E6;" width="8" height="4"/>
</svg>