<!DOCTYPE svg PUBLIC "-//W3C//DTD SVG 1.1//EN" "http://www.w3.org/Graphics/SVG/1.1/DTD/svg11.dtd">
<!-- Uploaded to: SVG Repo, www.svgrepo.com, Transformed by: SVG Repo Mixer Tools -->
<svg width="800px" height="800px" viewBox="0 0 36 36" xmlns="http://www.w3.org/2000/svg" xmlns:xlink="http://www.w3.org/1999/xlink" aria-hidden="true" role="img" class="iconify iconify--twemoji" preserveAspectRatio="xMidYMid meet" fill="#242424" stroke="#242424" stroke-width="0.576">
<g id="SVGRepo_bgCarrier" stroke-width="0"/>
<g id="SVGRepo_tracerCarrier" stroke-linecap="round" stroke-linejoin="round" stroke="#CCCCCC" stroke-width="0.072"/>
<g id="SVGRepo_iconCarrier">
<path fill="#FFE8B6" d="M21 18c0-2.001 3.246-3.369 5-6c2-3 2-10 2-10H8s0 7 2 10c1.754 2.631 5 3.999 5 6s-3.246 3.369-5 6c-2 3-2 10-2 10h20s0-7-2-10c-1.754-2.631-5-3.999-5-6z"/>
<path fill="#FFAC33" d="M18 2h-8s0 4 1 7c1.304 3.912 6 4.999 6 9s0 13 1 13s1-9 1-13s4.697-5.088 6-9c1-3 1-7 1-7h-8z"/>
<path fill="#ea1010" d="M30 34a2 2 0 0 1-2 2H8a2 2 0 0 1 0-4h20a2 2 0 0 1 2 2zm0-32a2 2 0 0 1-2 2H8a2 2 0 0 1 0-4h20a2 2 0 0 1 2 2z"/>
</g>
</svg>